<svg xmlns:xlink="http://www.w3.org/1999/xlink" xmlns="http://www.w3.org/2000/svg" aria-label="" class="x1lliihq x1n2onr6 x5n08af" fill="currentColor" height="24" role="img" viewBox="0 0 24 24" width="24"><title></title><path d="M8 12a1 1 0 0 0-1 1v3a1 1 0 1 0 2 0v-3a1 1 0 0 0-1-1Zm8-3a1 1 0 0 0-1 1v6a1 1 0 1 0 2 0v-6a1 1 0 0 0-1-1Zm-4-2a1 1 0 0 0-1 1v8a1 1 0 1 0 2 0V8a1 1 0 0 0-1-1Z"></path><path d="M18.44 1H5.567a4.565 4.565 0 0 0-4.56 4.56v12.873a4.565 4.565 0 0 0 4.56 4.56H18.44a4.565 4.565 0 0 0 4.56-4.56V5.56A4.565 4.565 0 0 0 18.44 1ZM21 18.433a2.563 2.563 0 0 1-2.56 2.56H5.567a2.563 2.563 0 0 1-2.56-2.56V5.56A2.563 2.563 0 0 1 5.568 3H18.44A2.563 2.563 0 0 1 21 5.56v12.873Z"></path></svg>