<svg xmlns:xlink="http://www.w3.org/1999/xlink" xmlns="http://www.w3.org/2000/svg" aria-label="" class="x1lliihq x1n2onr6 x5n08af" fill="currentColor" height="24" role="img" viewBox="0 0 24 24" width="24"><title></title><path d="m22.957 21.543-2.527-2.527a4.02 4.02 0 0 0 1.149-1.625 3.988 3.988 0 0 0-.273-3.371l-.484-.853a6.364 6.364 0 0 1-.82-3.17 7.953 7.953 0 0 0-4.746-7.302C14.51 1.642 13.292 1 12.001 1s-2.507.642-3.254 1.697A7.963 7.963 0 0 0 6.065 4.65L2.457 1.043a1 1 0 1 0-1.414 1.414l20.5 20.5a.997.997 0 0 0 1.414 0 1 1 0 0 0 0-1.414Zm-3.252-4.852c-.14.373-.385.68-.69.91L7.484 6.068a5.975 5.975 0 0 1 2.305-1.641 1 1 0 0 0 .493-.426A1.982 1.982 0 0 1 12.002 3c.71 0 1.353.375 1.72 1.002a.996.996 0 0 0 .493.425c2.3.914 3.786 3.1 3.786 5.634 0 1.434.374 2.85 1.081 4.094l.485.852c.298.526.348 1.124.138 1.684Zm-4.915 1.603a1 1 0 0 0-.707-.293H6.184c-.722 0-1.368-.372-1.73-.996s-.367-1.37-.01-1.996l.47-.823a8.344 8.344 0 0 0 1.093-4.171v-.09h-1l-1 .095a6.344 6.344 0 0 1-.83 3.175l-.47.823c-.714 1.253-.708 2.746.017 3.992s2.019 1.991 3.46 1.991h1.943a4.008 4.008 0 0 0 3.874 3 4.011 4.011 0 0 0 3.854-2.923.999.999 0 0 0-.256-.975l-.809-.81Zm-2.789 2.708a2.002 2.002 0 0 1-1.732-1.001h3.4l.041.041a2.01 2.01 0 0 1-1.709.96Z"></path></svg>