<svg xmlns:xlink="http://www.w3.org/1999/xlink" xmlns="http://www.w3.org/2000/svg" aria-label="" class="x1lliihq x1n2onr6 x5n08af" fill="currentColor" height="24" role="img" viewBox="0 0 24 24" width="24"><title></title><path d="M20.153 20.106A11.493 11.493 0 0 0 3.893 3.858c-.007.007-.016.009-.023.016s-.009.016-.015.023a11.493 11.493 0 0 0 16.247 16.26c.01-.009.022-.012.03-.02.01-.01.012-.022.021-.031Zm1.348-8.102a9.451 9.451 0 0 1-2.119 5.968L6.033 4.622a9.49 9.49 0 0 1 15.468 7.382Zm-19 0a9.451 9.451 0 0 1 2.118-5.967l13.35 13.35A9.49 9.49 0 0 1 2.5 12.003Z"></path></svg>