<svg xmlns:xlink="http://www.w3.org/1999/xlink" xmlns="http://www.w3.org/2000/svg" aria-label="" class="x1lliihq x1n2onr6 x5n08af" fill="currentColor" height="24" role="img" viewBox="0 0 24 24" width="24"><title></title><path d="M12.001.504a11.5 11.5 0 1 0 11.5 11.5 11.513 11.513 0 0 0-11.5-11.5Zm0 21a9.5 9.5 0 1 1 9.5-9.5 9.51 9.51 0 0 1-9.5 9.5Zm4.691-11.82L13.91 9.35l-1.08-2.537a.893.893 0 0 0-1.66 0L10.086 9.35l-2.783.334a.963.963 0 0 0-.493 1.662l2.095 1.905-.606 2.837a.918.918 0 0 0 1.363 1.018l2.335-1.504 2.335 1.504a.918.918 0 0 0 1.363-1.018l-.605-2.837 2.094-1.905a.962.962 0 0 0-.493-1.662Z" fill-rule="evenodd"></path></svg>