<svg xmlns:xlink="http://www.w3.org/1999/xlink" xmlns="http://www.w3.org/2000/svg" aria-label="" class="x1lliihq x1n2onr6 x5n08af" fill="currentColor" height="24" role="img" viewBox="0 0 24 24" width="24"><title></title><path d="M12 .5A11.5 11.5 0 1 0 23.5 12 11.513 11.513 0 0 0 12 .5Zm5.786 14.458a6.486 6.486 0 0 0 0-5.916l2.188-2.188a9.438 9.438 0 0 1 0 10.292Zm-8.968.224A4.499 4.499 0 1 1 12 16.5a4.468 4.468 0 0 1-3.182-1.318Zm8.328-11.156-2.188 2.188a6.485 6.485 0 0 0-5.916 0L6.854 4.026a9.438 9.438 0 0 1 10.292 0ZM4.026 6.855l2.188 2.187a6.486 6.486 0 0 0 0 5.916l-2.188 2.187a9.438 9.438 0 0 1 0-10.29Zm2.828 13.119 2.188-2.188a6.486 6.486 0 0 0 5.916 0l2.188 2.188a9.438 9.438 0 0 1-10.292 0Z"></path></svg>