<svg xmlns:xlink="http://www.w3.org/1999/xlink" xmlns="http://www.w3.org/2000/svg" aria-label="" class="x1lliihq x1n2onr6 x5n08af" fill="currentColor" height="24" role="img" viewBox="0 0 24 24" width="24"><title></title><path d="M12.596 20.797h-2.178l-.009-.039-.815-3.735H4.7l-.825 3.774H1.673l.014-.061L5.744 3.203h2.78l.01.038Zm-7.449-5.823h4L7.134 5.835Zm11.813 6.123a3.198 3.198 0 0 1-3.274-3.473c0-1.881 1.011-3.056 3.185-3.698l1.8-.524c.754-.212 1.163-.486 1.163-1.327a1.732 1.732 0 0 0-1.95-1.775 1.746 1.746 0 0 0-1.9 1.9v.524h-2.048V12.2a3.61 3.61 0 0 1 3.949-3.75c2.578 0 3.998 1.323 3.998 3.724v8.623h-2v-1.569a2.998 2.998 0 0 1-2.923 1.87Zm2.874-6.427a2.914 2.914 0 0 1-1.26.577l-1.126.325a1.996 1.996 0 0 0-1.714 1.976 1.565 1.565 0 0 0 1.675 1.7c2.189 0 2.425-2.237 2.425-3.199Z"></path></svg>