<svg xmlns:xlink="http://www.w3.org/1999/xlink" xmlns="http://www.w3.org/2000/svg" aria-label="" class="x1lliihq x1n2onr6 x5n08af" fill="currentColor" height="24" role="img" viewBox="0 0 24 24" width="24"><title></title><path d="M1.545 13.386a1 1 0 0 0 .961-1.037Q2.5 12.174 2.5 12a9.514 9.514 0 0 1 .467-2.955 1 1 0 0 0-1.902-.62A11.53 11.53 0 0 0 .5 12c0 .142.002.283.008.425a1 1 0 0 0 .998.962.52.52 0 0 0 .04-.001Zm1.742 2.424a1 1 0 1 0-1.834.798 11.588 11.588 0 0 0 3.163 4.23A1 1 0 1 0 5.9 19.307a9.581 9.581 0 0 1-2.614-3.497Zm12.828 4.757a9.575 9.575 0 0 1-7.113.45 1 1 0 1 0-.629 1.899 11.545 11.545 0 0 0 8.607-.546 1 1 0 0 0-.865-1.803Zm4.69-1.176A11.495 11.495 0 0 0 12.002.5a1 1 0 0 0 0 2 9.492 9.492 0 0 1 7.382 15.469L2.207.793A1 1 0 0 0 .793 2.207l21 21a1 1 0 0 0 1.414-1.414Z"></path></svg>