<svg xmlns:xlink="http://www.w3.org/1999/xlink" xmlns="http://www.w3.org/2000/svg" aria-label="" class="x1lliihq x1n2onr6 x5n08af" fill="currentColor" height="24" role="img" viewBox="0 0 24 24" width="24"><title></title><path d="m18.474 17.56.038-.033c2.338-2.004 4.988-4.276 4.988-7.87 0-3.947-3.01-7.157-6.708-7.157-1.97 0-3.546.692-4.797 2.11C10.735 3.192 9.162 2.5 7.21 2.5c-1.088 0-2.113.28-3.021.774L2.207 1.293A1 1 0 1 0 .793 2.707l20 20a.997.997 0 0 0 1.414 0 1 1 0 0 0 0-1.414l-3.733-3.733ZM7.209 4.5c1.887 0 2.936.898 3.674 1.919.84 1.16.98 1.741 1.12 1.741.14 0 .278-.58 1.11-1.745.732-1.023 1.768-1.915 3.679-1.915 2.596 0 4.708 2.313 4.708 5.156 0 2.736-2.156 4.522-4.445 6.485L5.705 4.791A4.179 4.179 0 0 1 7.209 4.5Zm6.18 14.944-1.053.928-.336.294-.336-.295-6.917-6.094A6.632 6.632 0 0 1 2.5 9.304c0-.41.05-.816.152-1.204a1 1 0 0 0-1.935-.504A6.8 6.8 0 0 0 .5 9.304a8.635 8.635 0 0 0 2.925 6.474l6.917 6.094c.472.417 1.065.625 1.658.625s1.186-.208 1.658-.625l1.053-.927a1 1 0 0 0-1.322-1.501Z"></path></svg>