<svg xmlns:xlink="http://www.w3.org/1999/xlink" xmlns="http://www.w3.org/2000/svg" aria-label="" class="x1lliihq x1n2onr6 x5n08af" fill="currentColor" height="24" role="img" viewBox="0 0 24 24" width="24"><title></title><path d="M15.108 13.652a3.342 3.342 0 0 1-3.341 3.342h-.661a2.246 2.246 0 0 1-2.246-2.246v-.634a2.246 2.246 0 0 1 2.246-2.246h3.654" fill="none" stroke="#000000" stroke-linecap="round" stroke-miterlimit="10" stroke-width="2px"></path><path d="M17.521 22h-7.368a6.95 6.95 0 0 1-3.695-.642 4.356 4.356 0 0 1-1.813-1.812 6.96 6.96 0 0 1-.64-3.696v-7.7a6.964 6.964 0 0 1 .64-3.697 4.36 4.36 0 0 1 1.813-1.812A6.952 6.952 0 0 1 10.153 2h3.74a6.95 6.95 0 0 1 3.694.64 4.356 4.356 0 0 1 1.814 1.813 6.956 6.956 0 0 1 .64 3.696v6.464a2.38 2.38 0 0 1-2.38 2.38h-.13a2.423 2.423 0 0 1-2.422-2.422V9.019a2.471 2.471 0 0 0-2.47-2.471h-.994a2.471 2.471 0 0 0-2.47 2.47v.268" fill="none" stroke="#000000" stroke-linecap="round" stroke-miterlimit="10" stroke-width="2px"></path></svg>