<svg xmlns:xlink="http://www.w3.org/1999/xlink" xmlns="http://www.w3.org/2000/svg" aria-label="" class="x1lliihq x1n2onr6 x5n08af" fill="currentColor" height="24" role="img" viewBox="0 0 24 24" width="24"><title></title><path d="M3.642 16.11V6.033a1.192 1.192 0 0 1 1.192-1.192h13.433a1.192 1.192 0 0 1 1.192 1.192m-5.343 13.125H3.778A1.778 1.778 0 0 1 2 17.38v-1.27h11.917" fill="none" stroke="#000000" stroke-linecap="round" stroke-linejoin="round" stroke-width="2px"></path><path d="M22 17.832v.16a1.322 1.322 0 0 1-.121.7.826.826 0 0 1-.343.345 1.316 1.316 0 0 1-.7.121h-2.755a1.315 1.315 0 0 1-.7-.121.826.826 0 0 1-.343-.344 1.321 1.321 0 0 1-.12-.7V10.2a1.321 1.321 0 0 1 .12-.7.826.826 0 0 1 .344-.344 1.315 1.315 0 0 1 .699-.122h2.755a1.315 1.315 0 0 1 .7.122.826.826 0 0 1 .343.343A1.322 1.322 0 0 1 22 10.2v7.632Z" fill="none" stroke="#000000" stroke-linejoin="round" stroke-width="2px"></path></svg>